<?xml version="1.0" encoding="UTF-8"?>
<svg xmlns="http://www.w3.org/2000/svg" viewBox="0 0 1040.84 908">
  <defs>
    <style>
      .cls-1 {
        fill: #ed6eff;
      }

      .cls-1, .cls-2, .cls-3, .cls-4 {
        stroke-width: 0px;
      }

      .cls-2 {
        fill: #c100d6;
      }

      .cls-4 {
        fill: #8b00a3;
      }
    </style>
  </defs>
  <g data-name="Слой 1">
    <g>
      <path class="cls-3" d="m285.56,662.76l40.83,50.4h-25.63l-5.83-7.2h-44.36l-5.83,7.2h-25.63l40.83-50.4h25.63Zm-23.33,28.8h21.03l-10.51-12.96-10.51,12.96Z"/>
      <path class="cls-3" d="m416.39,687.96c0,13.9-11.3,25.92-25.2,25.92h-45.36c-13.9,0-25.2-12.02-25.2-25.92v-25.2h22.75v25.2c0,3.96,3.24,7.2,7.2,7.2h35.86c3.96,0,7.2-3.24,7.2-7.2v-25.2h22.75v25.2Z"/>
      <path class="cls-3" d="m422.14,713.16v-50.4h75.61c12.6,0,20.16,10.08,20.16,20.16,0,8.71-5.69,17.42-15.34,19.66l15.34,10.58h-29.38l-14.62-10.08h-29.02v10.08h-22.75Zm22.75-33.12v5.76h47.09c2.02,0,3.17-1.08,3.17-2.88s-1.15-2.88-3.17-2.88h-47.09Z"/>
      <path class="cls-3" d="m599.26,662.04c13.9,0,25.2,12.02,25.2,25.92s-11.31,25.92-25.2,25.92h-52.56c-13.9,0-25.2-12.02-25.2-25.92s11.3-25.92,25.2-25.92h52.56Zm-47.88,18.72c-3.96,0-7.2,3.24-7.2,7.2s3.24,7.2,7.2,7.2h43.2c3.96,0,7.2-3.24,7.2-7.2s-3.24-7.2-7.2-7.2h-43.2Z"/>
      <path class="cls-3" d="m628.78,713.16v-50.4h75.61c12.6,0,20.16,10.08,20.16,20.16,0,8.71-5.69,17.42-15.34,19.66l15.34,10.58h-29.38l-14.62-10.08h-29.02v10.08h-22.75Zm22.75-33.12v5.76h47.09c2.02,0,3.17-1.08,3.17-2.88s-1.15-2.88-3.17-2.88h-47.09Z"/>
      <path class="cls-3" d="m793.16,662.76l40.83,50.4h-25.63l-5.83-7.2h-44.36l-5.83,7.2h-25.63l40.83-50.4h25.63Zm-23.33,28.8h21.03l-10.51-12.96-10.51,12.96Z"/>
      <path class="cls-3" d="m233.94,749.16h22.75v24.48c0,13.9-11.3,25.92-25.2,25.92h-63.37v-25.2h22.75v6.48h35.86c3.96,0,7.2-3.24,7.2-7.2v-24.48Z"/>
      <path class="cls-3" d="m262.44,749.16h93.61v12.96h-70.85v5.76h70.85v12.96h-70.85v5.76h70.85v12.96h-93.61v-50.4Z"/>
      <path class="cls-3" d="m425.38,799.56h-25.63l-40.83-50.4h25.63l28.01,34.56,5.76-7.13-22.25-27.43h25.63l9.43,11.67,9.43-11.67h25.63l-22.25,27.43,5.76,7.13,28.01-34.56h25.63l-40.83,50.4h-25.63l-5.76-7.13-5.76,7.13Z"/>
      <path class="cls-3" d="m506.23,749.16h93.61v12.96h-70.85v5.76h70.85v12.96h-70.85v5.76h70.85v12.96h-93.61v-50.4Z"/>
      <path class="cls-3" d="m605.59,799.56v-50.4h75.61c12.6,0,20.16,10.08,20.16,20.16,0,8.71-5.69,17.42-15.34,19.66l15.34,10.58h-29.38l-14.62-10.08h-29.02v10.08h-22.75Zm22.75-33.12v5.76h47.09c2.02,0,3.17-1.08,3.17-2.88s-1.15-2.88-3.17-2.88h-47.09Z"/>
      <path class="cls-3" d="m705.67,749.16h22.75v33.12h63.65v17.28h-86.41v-50.4Z"/>
      <path class="cls-3" d="m814.9,782.28l-42.27-33.12h30.03l23.62,18.58,23.62-18.58h30.03l-42.27,33.12v17.28h-22.75v-17.28Z"/>
    </g>
  </g>
  <g data-name="Слой 2">
    <polygon class="cls-2" points="409.84 0 267.84 166 540.84 534 817.84 166 677.84 0 409.84 0"/>
    <polygon class="cls-1" points="414.84 7.91 291.84 158 409.84 161 414.84 7.91"/>
    <polygon class="cls-1" points="285.84 167 407.84 172 540.84 514 285.84 167"/>
    <polygon class="cls-4" points="796.18 167.12 674.18 172.12 541.18 514.12 796.18 167.12"/>
    <polygon class="cls-1" points="420.84 161 539.84 8 659.84 161 420.84 161"/>
  </g>
</svg>
